<svg width="102" height="102" viewBox="0 0 102 102" fill="none" xmlns="http://www.w3.org/2000/svg">
<path d="M60.267 96.159C58.9698 97.7177 57.2912 98.5915 55.2314 98.7801C53.1716 98.9688 51.3623 98.4145 49.8035 97.1173C48.2447 95.82 47.3718 94.1422 47.1847 92.0836C46.9976 90.0251 47.5518 88.2158 48.8475 86.6557C49.4009 85.9907 50.0556 85.4415 50.8116 85.008C51.566 84.5732 52.3622 84.2895 53.2 84.1571L51.4566 65.1213L41.4637 56.8053C40.1311 57.8687 38.5795 58.4044 36.8088 58.4123C35.0379 58.4173 33.4666 57.8491 32.0949 56.7076C30.5361 55.4104 29.6618 53.7326 29.4718 51.6743C29.2845 49.613 29.8388 47.8037 31.1347 46.2464C32.4306 44.6892 34.1091 43.8155 36.1703 43.6253C38.2314 43.4351 40.0407 43.9894 41.5982 45.2881C42.9699 46.4296 43.8198 47.8646 44.1481 49.5931C44.4749 51.3203 44.2236 52.9511 43.3941 54.4856L53.387 62.8017L72.4343 61.0444C72.4139 60.1977 72.5444 59.3679 72.8256 58.555C73.1069 57.7422 73.5287 56.9978 74.0911 56.322C75.387 54.7648 77.0649 53.8919 79.1248 53.7032C81.1846 53.5146 82.9939 54.0688 84.5527 55.3661C86.1115 56.6633 86.9844 58.3412 87.1715 60.3997C87.3586 62.4582 86.8043 64.2676 85.5087 65.8276C84.213 67.3877 82.5351 68.2606 80.475 68.4465C78.4149 68.6323 76.6064 68.0786 75.0494 66.7855C74.5886 66.402 74.1828 65.9806 73.8322 65.5213C73.4829 65.0605 73.214 64.5658 73.0256 64.0374L54.5443 65.7278L56.239 84.2088C56.7929 84.298 57.3281 84.4726 57.8448 84.7324C58.3601 84.9938 58.8482 85.3162 59.3091 85.6997C60.8663 86.9956 61.7393 88.6735 61.9279 90.7333C62.1166 92.7932 61.5629 94.6017 60.267 96.159ZM83.1852 63.9019C83.9676 62.9617 84.3056 61.8871 84.1992 60.6783C84.0912 59.4683 83.5671 58.472 82.6269 57.6895C81.6867 56.9071 80.6122 56.5691 79.4034 56.6755C78.1946 56.7819 77.1983 57.306 76.4146 58.2478C75.6308 59.1895 75.2928 60.2641 75.4005 61.4713C75.5083 62.6786 76.0323 63.6748 76.9728 64.4601C77.9133 65.2454 78.9878 65.5834 80.1964 65.4742C81.4049 65.3649 82.4012 64.8408 83.1852 63.9019ZM40.2307 53.8239C41.0131 52.8837 41.3512 51.8092 41.2447 50.6004C41.1368 49.3903 40.6127 48.3941 39.6724 47.6116C38.7322 46.8292 37.6571 46.4919 36.447 46.5999C35.2369 46.7079 34.2406 47.2319 33.4582 48.1722C32.6757 49.1124 32.3385 50.1875 32.4465 51.3976C32.5544 52.6077 33.0784 53.6026 34.0183 54.3822C34.9583 55.1618 36.0328 55.4998 37.2419 55.3962C38.4509 55.2926 39.4472 54.7685 40.2307 53.8239ZM57.9416 94.2355C58.724 93.2953 59.062 92.2208 58.9556 91.012C58.8476 89.8019 58.3235 88.8056 57.3833 88.0232C56.4431 87.2407 55.3686 86.9027 54.1598 87.0091C52.951 87.1156 51.9547 87.6397 51.171 88.5814C50.3872 89.5232 50.0492 90.5977 50.1569 91.805C50.2647 93.0122 50.7887 94.0085 51.7292 94.7938C52.6697 95.5791 53.7449 95.9163 54.9547 95.8055C56.1622 95.7006 57.1591 95.1757 57.9416 94.2355Z" fill="#533003"/>
</svg>
