<svg width="74" height="74" viewBox="0 0 74 74" fill="none" xmlns="http://www.w3.org/2000/svg">
<path d="M3.17931 7.2598C3.27231 5.2808 4.06601 3.61119 5.5604 2.25095C7.05479 0.890715 8.79148 0.257098 10.7705 0.350101C12.7495 0.443104 14.4181 1.23675 15.7764 2.73105C17.1347 4.22535 17.7683 5.96204 17.6772 7.94113C17.6376 8.78535 17.4508 9.59904 17.1168 10.3822C16.7849 11.1655 16.3314 11.8554 15.7564 12.4522L28.3268 26.2624L41.0136 26.8586C41.4259 25.2449 42.3198 23.9135 43.6953 22.8644C45.0727 21.8175 46.6321 21.3349 48.3735 21.4167C50.3525 21.5097 52.0222 22.3025 53.3825 23.7949C54.7426 25.2912 55.3762 27.0279 55.2833 29.005C55.1904 30.982 54.3967 32.6516 52.9022 34.0138C51.4078 35.376 49.6711 36.0096 47.6922 35.9147C45.9507 35.8328 44.443 35.215 43.1691 34.0611C41.8972 32.9073 41.1325 31.4881 40.8752 29.8036L28.1884 29.2074L14.3774 41.7955C14.8919 42.4434 15.279 43.167 15.5386 43.9663C15.7981 44.7655 15.9077 45.5941 15.8674 46.4521C15.7745 48.4291 14.9808 50.0978 13.4865 51.458C11.9921 52.8182 10.2554 53.4518 8.27638 53.3588C6.29738 53.2658 4.62874 52.4722 3.27047 50.9779C1.9122 49.4836 1.27858 47.7469 1.36962 45.7678C1.46066 43.7887 2.25431 42.1201 3.75057 40.7619C5.24683 39.4037 6.98255 38.7701 8.95771 38.8609C9.54277 38.8884 10.1072 38.9779 10.651 39.1294C11.1948 39.2828 11.6957 39.51 12.1537 39.8109L25.563 27.6082L13.3573 14.2018C12.873 14.4584 12.353 14.6376 11.7972 14.7394C11.2416 14.8392 10.6713 14.8754 10.0862 14.8479C8.10917 14.755 6.44053 13.9613 5.0803 12.4669C3.72006 10.9725 3.0864 9.23684 3.17931 7.2598ZM4.31484 45.9003C4.25874 47.094 4.62815 48.1306 5.42305 49.0101C6.21993 49.8897 7.2152 50.3575 8.40889 50.4136C9.60257 50.4697 10.6392 50.1003 11.5187 49.3054C12.3982 48.5105 12.866 47.5152 12.9222 46.3196C12.9784 45.1239 12.609 44.0873 11.814 43.2098C11.019 42.3323 10.0237 41.8644 8.82815 41.8063C7.6326 41.7481 6.596 42.1175 5.71837 42.9145C4.84074 43.7114 4.3729 44.7067 4.31484 45.9003ZM43.7306 28.4561C43.6745 29.6498 44.0439 30.6864 44.8388 31.5659C45.6357 32.4455 46.631 32.9133 47.8247 32.9694C49.0184 33.0255 50.055 32.6552 50.9346 31.8583C51.8142 31.0614 52.282 30.0661 52.3381 28.8724C52.3942 27.6788 52.0238 26.6421 51.227 25.7625C50.4301 24.8829 49.4357 24.4161 48.2439 24.3621C47.0521 24.308 46.0155 24.6774 45.1342 25.4703C44.2528 26.2632 43.7849 27.2584 43.7306 28.4561ZM6.12466 7.38937C6.06857 8.58305 6.43797 9.61964 7.23288 10.4991C8.02975 11.3787 9.02503 11.8466 10.2187 11.9027C11.4124 11.9588 12.449 11.5894 13.3285 10.7945C14.208 9.99955 14.6758 9.00427 14.732 7.80863C14.7882 6.61298 14.4188 5.57639 13.6238 4.69885C12.8288 3.82131 11.8335 3.35347 10.638 3.29532C9.44242 3.23716 8.40578 3.60755 7.52806 4.40648C6.64865 5.19943 6.18076 6.19568 6.12466 7.38937Z" fill="#533003"/>
</svg>
